:SAMPLES-PER-SECOND 30
:FULLY-SPECIFIED
:DEGREES
154
root  77.465 37.0566 3.09363 -134.387 79.6693 -132.427
RightUpLeg  -26.5477 6.0563 9.87398
RightLeg  24.7822 0.789046 -4.37765
RightFoot  2.97852 0.615572 -4.33013
RightToes  1.16414e-010 -1.59028e-015 9.93923e-017
Spine  3.26258 -6.08542 1.15209
Spine1  6.65667 -7.98312 9.16775
HEad  -16.6159 7.08905 1.05397
LeftShoulder1  9.93923e-017 0 1.22299e-017
LeftArm  19.0642 -1.76311 -80.1785
LeftForeArm  -37.0152 -33.6027 21.1018
LeftHand  0.488682 4.63705 7.1749
RightShoulder  1.98785e-016 -4.96962e-017 1.55301e-017
RightArm  -15.0649 -64.6576 65.3007
RightForeArm  -156.137 5.08328 -10.5591
RightHand  1.54947 9.59773 17.3744
LeftUpLeg  10.3523 -5.57515 11.3675
LeftLeg  38.6974 -13.0808 -2.0242
LeftFoot  16.1517 2.78788 -10.3822
LeftToes  -6.63929e-010 -3.62392e-011 -1.02376e-010
155
root  79.1286 37.0306 3.15289 -135.375 78.6785 -133.133
RightUpLeg  -25.0536 5.05572 11.2769
RightLeg  28.1408 0.858103 -5.11274
RightFoot  -1.383 0.531151 -5.13281
RightToes  1.16414e-010 -1.59028e-015 9.93923e-017
Spine  3.59225 -5.89133 2.20577
Spine1  7.28105 -7.6014 9.83823
HEad  -16.9345 6.18273 1.53283
LeftShoulder1  9.93923e-017 0 1.22299e-017
LeftArm  24.0756 3.65755 -83.7478
LeftForeArm  -39.3022 -27.1703 16.802
LeftHand  0.375133 4.11737 7.42229
RightShoulder  1.98785e-016 -4.96962e-017 1.55301e-017
RightArm  -22.0665 -57.6604 73.3822
RightForeArm  -155.471 4.81932 -10.5827
RightHand  1.64566 9.69293 18.0091
LeftUpLeg  4.49334 -7.18835 11.7694
LeftLeg  48.3385 -10.5056 1.05905
LeftFoot  22.1467 2.74895 -8.3228
LeftToes  -6.63929e-010 -3.62392e-011 -1.02376e-010
156
root  80.9509 37.3392 3.18731 -135.57 78.9053 -133.224
RightUpLeg  -21.5971 5.66619 11.7706
RightLeg  28.0074 0.30576 -5.39864
RightFoot  -3.67139 0.41492 -5.01909
RightToes  1.16414e-010 -1.59028e-015 9.93923e-017
Spine  2.37947 -5.1333 2.30762
Spine1  8.16439 -6.85752 9.95453
HEad  -16.0931 5.16329 1.35464
LeftShoulder1  9.93923e-017 0 1.22299e-017
LeftArm  15.1224 9.57985 -86.2067
LeftForeArm  -28.6605 -19.9874 5.72154
LeftHand  0.306528 3.79557 7.47948
RightShoulder  1.98785e-016 -4.96962e-017 1.55301e-017
RightArm  -24.7285 -50.0118 78.1753
RightForeArm  -157.372 5.92862 -11.2337
RightHand  1.86438 10.008 19.404
LeftUpLeg  -1.15219 -7.4666 11.2061
LeftLeg  55.1009 -8.55249 4.98601
LeftFoot  20.9016 2.11271 -6.60194
LeftToes  -6.63929e-010 -3.62392e-011 -1.02376e-010
157
root  82.8378 37.842 3.18606 -134.901 80.0862 -132.322
RightUpLeg  -16.8876 7.82938 11.7066
RightLeg  25.8471 -1.1898 -5.65127
RightFoot  -5.22083 0.327264 -4.7475
RightToes  1.16414e-010 -1.59028e-015 9.93923e-017
Spine  1.251 -4.07573 2.21568
Spine1  8.16135 -5.66991 9.23371
HEad  -14.3246 4.44975 1.01826
LeftShoulder1  9.93923e-017 0 1.22299e-017
LeftArm  -8.53655 16.7858 -86.7485
LeftForeArm  -6.19627 -9.11805 -5.38563
LeftHand  0.332736 3.92707 7.51851
RightShoulder  1.98785e-016 -4.96962e-017 1.55301e-017
RightArm  -24.1912 -42.9162 80.9445
RightForeArm  -164.103 8.16813 -12.5026
RightHand  2.12929 9.1524 21.8497
LeftUpLeg  -6.08325 -6.96802 9.76532
LeftLeg  58.5104 -7.82851 7.3851
LeftFoot  16.5757 1.26188 -4.52456
LeftToes  -6.63929e-010 -3.62392e-011 -1.02376e-010
